<?xml version="1.0" encoding="UTF-8"?>
<!DOCTYPE svg PUBLIC "-//W3C//DTD SVG 1.1//EN" "http://www.w3.org/Graphics/SVG/1.1/DTD/svg11.dtd">
<!-- Creator: CorelDRAW -->
<svg xmlns="http://www.w3.org/2000/svg" xml:space="preserve" width="850px" height="850px" version="1.1" style="shape-rendering:geometricPrecision; text-rendering:geometricPrecision; image-rendering:optimizeQuality; fill-rule:evenodd; clip-rule:evenodd"
viewBox="0 0 850 850"
 xmlns:xlink="http://www.w3.org/1999/xlink"
 xmlns:xodm="http://www.corel.com/coreldraw/odm/2003">
 <defs>
  <style type="text/css">
   <![CDATA[
    .fil1 {fill:#FEFEFE}
    .fil0 {fill:url(#id0)}
   ]]>
  </style>
  <linearGradient id="id0" gradientUnits="userSpaceOnUse" x1="425" y1="849.998" x2="425" y2="0.002">
   <stop offset="0" style="stop-opacity:1; stop-color:#1AA8DC"/>
   <stop offset="0.490196" style="stop-opacity:1; stop-color:#AE3B89"/>
   <stop offset="1" style="stop-opacity:1; stop-color:#F26270"/>
  </linearGradient>
 </defs>
 <g id="Layer_x0020_1">
  <metadata id="CorelCorpID_0Corel-Layer"/>
  <circle class="fil0" cx="425" cy="425" r="425.001"/>
  <path class="fil1" d="M490.495 679.101l-130.823 0c-12.493,0 -22.587,-10.094 -22.587,-22.587l0 -52.469c-7.796,-3.898 -15.491,-8.295 -22.887,-13.292l-45.573 26.284c-5.197,2.999 -11.294,3.798 -17.19,2.299 -5.897,-1.599 -10.694,-5.297 -13.692,-10.494l-65.462 -113.433c-2.998,-5.197 -3.798,-11.294 -2.298,-17.19 1.599,-5.897 5.297,-10.694 10.494,-13.692l45.473 -26.285c-0.3,-4.197 -0.4,-8.595 -0.4,-13.192 0,-4.598 0.1,-8.995 0.4,-13.193l-45.573 -26.284c-10.794,-6.296 -14.492,-20.188 -8.196,-30.982l65.462 -113.334c2.998,-5.197 7.795,-8.994 13.692,-10.594 5.896,-1.599 11.993,-0.799 17.19,2.299l45.473 26.285c7.296,-4.897 14.991,-9.295 22.887,-13.193l0 -52.569c0,-12.492 10.094,-22.586 22.587,-22.586l130.823 0c12.493,0 22.587,10.094 22.587,22.586l0 52.57c8.095,3.997 15.691,8.395 22.886,13.192l45.474 -26.285c5.197,-2.998 11.393,-3.798 17.19,-2.199 5.796,1.6 10.693,5.297 13.692,10.594l65.461 113.334c6.197,10.794 2.499,24.686 -8.295,30.882l-45.273 26.284c0.299,4.498 0.499,8.895 0.499,13.193 0,4.297 -0.2,8.595 -0.499,13.192l45.573 26.285c5.197,2.898 8.895,7.795 10.494,13.592 1.599,5.896 0.799,11.993 -2.199,17.29l-65.462 113.433c-6.296,10.794 -20.188,14.492 -30.881,8.295l-45.474 -26.284c-7.296,4.897 -14.991,9.394 -22.886,13.292l0 52.469c0,12.393 -10.194,22.487 -22.687,22.487zm-65.462 -108.436c-80.253,0 -145.615,-65.362 -145.615,-145.615 0,-80.353 65.362,-145.715 145.615,-145.715 80.353,0 145.715,65.362 145.715,145.715 0,80.353 -65.362,145.615 -145.715,145.615zm0 -277.338c-72.557,0 -131.623,59.066 -131.623,131.723 0,72.557 59.066,131.623 131.623,131.623 72.658,0 131.723,-59.066 131.723,-131.623 0,-72.658 -59.065,-131.723 -131.723,-131.723zm6.796 140.718l0 -57.067c0,-1.972 0.793,-3.738 2.081,-5.003 1.266,-1.295 3.037,-2.093 5.015,-2.093l23.586 0c6.397,0 11.793,0.3 15.791,0.999 5.797,1 10.694,2.899 14.692,5.697 4.197,2.898 7.595,6.896 9.994,11.993 2.398,4.897 3.597,10.394 3.597,16.091 0,9.894 -3.298,18.489 -9.694,25.485 -6.596,7.196 -17.789,10.794 -33.38,10.794l-17.69 0 0 32.081c0,3.997 -3.198,7.095 -6.996,7.095 -3.898,0 -6.996,-3.098 -6.996,-6.995l0 -39.077zm13.992 -50.171l0 43.175 17.69 0c11.293,0 19.288,-2.199 23.086,-6.197 3.998,-4.397 5.997,-9.694 5.997,-16.09 0,-3.598 -0.8,-6.996 -2.199,-9.994 -1.399,-2.899 -3.198,-5.098 -5.397,-6.597 0,0 -0.1,0 -0.1,-0.1 -2.299,-1.599 -5.297,-2.698 -8.995,-3.398 -2.298,-0.4 -6.396,-0.799 -13.392,-0.799l-16.69 0zm78.354 96.243c-3.898,0 -6.996,-3.098 -6.996,-6.995l0 -96.144c0,-3.898 3.099,-6.996 6.996,-6.996 3.898,0 6.996,3.098 6.996,6.996l0 96.144c0,3.897 -3.098,6.995 -6.996,6.995zm-132.569 -48.071l-42.424 0 -16.794 43.674c-1,2.699 -3.698,4.397 -6.497,4.397 -0.799,0 -1.699,-0.199 -2.498,-0.499 -3.598,-1.399 -5.397,-5.397 -3.998,-8.995l18.214 -47.356c0.135,-0.524 0.329,-1.023 0.573,-1.491l18.191 -47.296c1,-2.699 3.598,-4.498 6.497,-4.498l13.692 0c2.798,0 5.396,1.699 6.496,4.298l39.377 96.143c1.499,3.598 -0.3,7.696 -3.798,9.095 -3.598,1.499 -7.695,-0.3 -9.095,-3.798l-17.936 -43.674zm-37.044 -13.992l31.298 0 -13.996 -34.08 -4.197 0 -13.105 34.08z"/>
 </g>
</svg>
